<svg xmlns="http://www.w3.org/2000/svg" width="20" height="20" viewBox="0 0 37.875 37.875">
  <path id="apartment-24p" d="M32.458,19.833V3H11.417v8.417H3V40.875H19.833V32.458h4.208v8.417H40.875V19.833ZM11.417,36.667H7.208V32.458h4.208Zm0-8.417H7.208V24.042h4.208Zm0-8.417H7.208V15.625h4.208Zm8.417,8.417H15.625V24.042h4.208Zm0-8.417H15.625V15.625h4.208Zm0-8.417H15.625V7.208h4.208ZM28.25,28.25H24.042V24.042H28.25Zm0-8.417H24.042V15.625H28.25Zm0-8.417H24.042V7.208H28.25Zm8.417,25.25H32.458V32.458h4.208Zm0-8.417H32.458V24.042h4.208Z" transform="translate(-3 -3)" fill="#f3b340"/>
</svg>
