<svg xmlns="http://www.w3.org/2000/svg" width="20" height="20" viewBox="0 0 49.5 44">
  <path id="directions_car-24px" d="M46.78,7.778A4.109,4.109,0,0,0,42.875,5H12.625A4.135,4.135,0,0,0,8.72,7.778L3,24.25v22A2.758,2.758,0,0,0,5.75,49H8.5a2.758,2.758,0,0,0,2.75-2.75V43.5h33v2.75A2.758,2.758,0,0,0,47,49h2.75a2.758,2.758,0,0,0,2.75-2.75v-22ZM12.625,35.25a4.125,4.125,0,1,1,4.125-4.125A4.119,4.119,0,0,1,12.625,35.25Zm30.25,0A4.125,4.125,0,1,1,47,31.125,4.119,4.119,0,0,1,42.875,35.25ZM8.5,21.5,12.625,9.125h30.25L47,21.5Z" transform="translate(-3 -5)" fill="#f3b340"/>
</svg>
