<svg xmlns="http://www.w3.org/2000/svg" width="27" height="30.042" viewBox="0 0 27 30.042">
  <path id="share-alt-solid" d="M21.214,18.776A5.859,5.859,0,0,0,17.611,20l-6.177-3.758a5.519,5.519,0,0,0,0-2.446l6.177-3.758a5.859,5.859,0,0,0,3.6,1.226A5.711,5.711,0,0,0,27,5.633a5.788,5.788,0,0,0-11.571,0,5.508,5.508,0,0,0,.137,1.223L9.389,10.614a5.859,5.859,0,0,0-3.6-1.226A5.711,5.711,0,0,0,0,15.021a5.711,5.711,0,0,0,5.786,5.633,5.859,5.859,0,0,0,3.6-1.226l6.177,3.758a5.508,5.508,0,0,0-.137,1.223,5.788,5.788,0,1,0,5.786-5.633Z" fill="#364c63"/>
</svg>
