<?xml version="1.0" standalone="no"?>
<!DOCTYPE svg PUBLIC "-//W3C//DTD SVG 20010904//EN"
 "http://www.w3.org/TR/2001/REC-SVG-20010904/DTD/svg10.dtd">
<svg version="1.0" xmlns="http://www.w3.org/2000/svg"
 width="5867.000000pt" height="5867.000000pt" viewBox="0 0 5867.000000 5867.000000"
 preserveAspectRatio="xMidYMid meet">

<g transform="translate(0.000000,5867.000000) scale(0.100000,-0.100000)"
fill="#000000" stroke="none">
<path d="M20690 35011 l-155 -87 -5 -139 -5 -140 -25 0 -25 0 -3 202 c-2 190
-4 202 -22 208 -14 4 -69 -21 -180 -81 l-159 -87 -3 -121 -3 -121 -27 -3 -28
-3 0 180 c0 239 12 232 -203 112 l-162 -90 0 -144 c0 -142 1 -144 33 -210 57
-116 165 -186 299 -195 40 -3 73 -9 73 -14 0 -6 92 -8 238 -6 197 3 248 7 302
23 36 11 70 24 75 30 6 6 30 24 53 40 24 16 57 48 73 72 55 79 58 101 59 385
1 264 -1 279 -35 277 -5 0 -80 -40 -165 -88z"/>
<path d="M16138 34563 l-257 -137 -3 -915 -3 -916 -23 -54 c-35 -82 -78 -138
-144 -187 -86 -63 -166 -86 -303 -87 -202 -1 -336 63 -423 201 -56 89 -67 141
-66 312 1 177 18 258 81 393 33 70 35 80 23 102 -7 14 -18 25 -24 25 -6 0
-124 -25 -263 -56 l-252 -57 -30 -61 c-69 -143 -95 -264 -94 -446 1 -270 84
-486 257 -668 172 -181 395 -281 670 -300 573 -41 1007 239 1144 737 l27 96 3
1065 c2 998 2 1066 -15 1077 -9 7 -24 13 -32 13 -9 -1 -132 -62 -273 -137z"/>
<path d="M18760 34566 l-255 -135 -5 -678 c-5 -673 -5 -678 -27 -726 -32 -69
-75 -86 -215 -87 l-108 0 0 643 0 644 -24 11 c-22 10 -53 -4 -283 -126 l-258
-137 -3 -517 -2 -518 -217 -2 -216 -3 -133 -255 c-120 -229 -132 -257 -120
-275 13 -20 23 -20 787 -20 722 0 779 1 844 19 300 79 504 321 544 646 7 53
11 372 11 857 0 753 0 773 -19 783 -11 5 -26 10 -33 10 -7 0 -128 -61 -268
-134z"/>
<path d="M22078 34562 l-258 -137 0 -675 0 -676 -22 -44 c-45 -87 -34 -85
-412 -85 -305 0 -334 1 -360 18 -39 26 -64 89 -81 209 -24 161 -51 254 -110
373 -63 130 -155 249 -264 342 -79 68 -247 183 -265 183 -18 0 -274 -449 -269
-470 3 -10 44 -47 92 -83 88 -66 151 -137 190 -214 65 -131 69 -333 6 -357 -9
-3 -148 -6 -309 -6 l-292 0 -133 -256 c-120 -229 -132 -258 -122 -280 l11 -25
512 3 c500 3 515 4 579 26 36 12 85 36 108 53 l43 30 71 -35 c143 -69 157 -71
597 -71 383 0 397 1 475 23 131 38 209 85 311 186 102 103 146 176 191 321
l28 90 3 835 c3 783 2 835 -14 847 -10 7 -25 13 -33 13 -9 0 -132 -62 -273
-138z"/>
<path d="M23318 34563 l-258 -137 0 -1007 c0 -962 1 -1007 18 -1022 16 -15 50
-17 274 -17 234 0 256 1 271 18 16 17 17 111 17 1150 0 1108 0 1132 -19 1142
-11 5 -26 10 -33 10 -7 0 -129 -62 -270 -137z"/>
<path d="M30101 32142 c-159 -77 -247 -125 -252 -138 -4 -10 -8 -584 -8 -1274
-1 -1121 1 -1258 15 -1278 15 -22 18 -22 264 -22 236 0 250 1 260 19 7 13 10
468 10 1400 0 1241 -2 1381 -16 1395 -8 9 -18 16 -22 16 -4 0 -117 -53 -251
-118z"/>
<path d="M31171 32142 c-159 -77 -247 -125 -252 -138 -4 -10 -8 -584 -8 -1274
-1 -1121 1 -1258 15 -1278 15 -22 18 -22 264 -22 236 0 250 1 260 19 7 13 10
468 10 1400 0 1241 -2 1381 -16 1395 -8 9 -18 16 -22 16 -4 0 -117 -53 -251
-118z"/>
<path d="M34361 32142 c-159 -77 -247 -125 -252 -138 -4 -10 -8 -584 -8 -1274
-1 -1121 1 -1258 15 -1278 15 -22 18 -22 264 -22 236 0 250 1 260 19 7 13 10
468 10 1400 0 1241 -2 1381 -16 1395 -8 9 -18 16 -22 16 -4 0 -117 -53 -251
-118z"/>
<path d="M25158 32079 c-106 -15 -182 -68 -229 -159 l-24 -45 0 -1115 0 -1115
30 -60 c33 -64 90 -116 153 -137 51 -17 682 -23 817 -8 369 42 660 177 874
406 138 147 223 306 276 514 64 246 59 608 -11 876 -115 446 -438 730 -931
819 -147 27 -822 44 -955 24z m862 -593 c159 -38 294 -127 369 -244 102 -159
139 -497 82 -737 -24 -100 -50 -160 -100 -233 -48 -69 -89 -109 -162 -155
-133 -85 -234 -107 -501 -114 l-208 -5 0 757 0 757 223 -4 c167 -3 240 -9 297
-22z"/>
<path d="M28320 31450 c-173 -24 -326 -73 -448 -142 -70 -41 -74 -44 -69 -73
7 -35 140 -292 167 -319 18 -18 20 -18 107 17 227 92 496 114 625 53 102 -49
148 -126 148 -251 l0 -55 -37 15 c-144 61 -474 70 -667 20 -147 -38 -259 -100
-355 -195 -114 -112 -171 -257 -171 -434 1 -385 240 -610 690 -647 69 -6 285
-9 480 -7 350 3 356 3 408 27 65 29 125 95 149 164 17 48 18 100 18 652 0 666
0 664 -65 800 -86 179 -254 302 -490 360 -77 19 -390 29 -490 15z m401 -1124
c31 -9 73 -23 93 -31 l36 -15 0 -211 0 -211 -247 4 -248 3 -60 30 c-75 38
-112 84 -125 156 -25 137 41 250 168 286 63 17 306 11 383 -11z"/>
<path d="M32580 31450 c-173 -24 -326 -73 -448 -142 -70 -41 -74 -44 -69 -73
7 -35 140 -292 167 -319 18 -18 20 -18 107 17 159 64 323 93 478 84 197 -11
295 -104 295 -279 l0 -58 -37 15 c-144 61 -474 70 -667 20 -147 -38 -258 -100
-356 -196 -113 -110 -170 -256 -170 -439 0 -378 244 -604 690 -641 69 -6 287
-9 485 -7 355 3 361 3 405 26 94 49 143 119 160 229 16 102 8 1189 -9 1258
-21 82 -86 206 -141 267 -93 104 -234 182 -400 223 -77 19 -390 29 -490 15z
m401 -1124 c31 -9 73 -23 93 -31 l36 -15 0 -211 0 -211 -247 4 -248 3 -60 30
c-75 38 -112 84 -125 156 -25 137 41 250 168 286 63 17 306 11 383 -11z"/>
</g>
</svg>
