<svg xmlns="http://www.w3.org/2000/svg" width="20" height="20" viewBox="0 0 46 26.833">
  <path id="two_wheeler-24px" d="M38.333,16.5a8.69,8.69,0,0,0-1.016.1l-3.948-3.929h4.964V6.917L31.2,10.482,25.7,5H17.25V8.833h6.881l3.833,3.833H21.083L13.417,16.5,9.583,12.667H0V16.5H7.667a7.667,7.667,0,1,0,7.667,7.667L19.167,28h5.75l6.689-11.692,1.936,1.936a7.582,7.582,0,0,0-2.875,5.923A7.667,7.667,0,1,0,38.333,16.5ZM7.667,28A3.833,3.833,0,1,1,11.5,24.167,3.845,3.845,0,0,1,7.667,28Zm30.667,0a3.833,3.833,0,1,1,3.833-3.833A3.845,3.845,0,0,1,38.333,28Z" transform="translate(0 -5)" fill="#f3b340"/>
</svg>
