<svg xmlns="http://www.w3.org/2000/svg" width="50" height="50" viewBox="0 0 50 50">
  <g id="user" transform="translate(-1599 -16)">
    <circle id="Ellipse_8" data-name="Ellipse 8" cx="25" cy="25" r="25" transform="translate(1599 16)" fill="#fff"/>
    <path id="user-solid" d="M16.488,17c5.2,0,9.422-3.805,9.422-8.5S21.692,0,16.488,0,7.066,3.805,7.066,8.5,11.284,17,16.488,17Zm6.6,2.125H21.854a14.081,14.081,0,0,1-10.732,0H9.893c-5.462,0-9.893,4-9.893,8.925v2.762A3.375,3.375,0,0,0,3.533,34H29.442a3.375,3.375,0,0,0,3.533-3.188V28.05C32.975,23.123,28.544,19.125,23.083,19.125Z" transform="translate(1607.125 24)"/>
  </g>
</svg>
