<svg xmlns="http://www.w3.org/2000/svg" width="20" height="20" viewBox="0 0 41.25 26.25">
  <path id="weekend-24px" d="M38.5,14.375a3.761,3.761,0,0,0-3.75,3.75V23.75H8.5V18.125a3.75,3.75,0,0,0-7.5,0V27.5a3.761,3.761,0,0,0,3.75,3.75H38.5a3.761,3.761,0,0,0,3.75-3.75V18.125A3.761,3.761,0,0,0,38.5,14.375ZM32.875,5h-22.5a3.761,3.761,0,0,0-3.75,3.75v4.031a5.62,5.62,0,0,1,3.75,5.269v3.825h22.5V18.069a5.6,5.6,0,0,1,3.75-5.269V8.75A3.761,3.761,0,0,0,32.875,5Z" transform="translate(-1 -5)" fill="#f3b340"/>
</svg>
